PathFileType	4	(X/Y/Z)	..\data\2015032\dynamic\2015032_C5_01.trc
DataRate	CameraRate	NumFrames	NumMarkers	Units	OrigDataRate	OrigDataStartFrame	OrigNumFrames
100.000000	100.000000	4	48	mm	100.000000	41	165
Frame#	Time	L_IAS			L_IPS			R_IPS			R_IAS			L_FTC			L_FLE			L_FAX			L_TTC			L_FAL			L_FCC			L_FM1			L_FM2			L_FM5			R_FTC			R_FLE			R_FAX			R_TTC			R_FAL			R_FCC			R_FM1			R_FM2			R_FM5			CV7			TV10			SXS			SJN			L_SIA			L_SRS			L_SAA			L_SAE			L_HLE			L_HME			L_UOA			L_RSP			L_UHE			L_HM2			L_HM5			R_SIA			R_SRS			R_SAA			R_SAE			R_HLE			R_HME			R_UOA			R_RSP			R_UHE			R_HM2			R_HM5			
		X1	Y1	Z1	X2	Y2	Z2	X3	Y3	Z3	X4	Y4	Z4	X5	Y5	Z5	X6	Y6	Z6	X7	Y7	Z7	X8	Y8	Z8	X9	Y9	Z9	X10	Y10	Z10	X11	Y11	Z11	X12	Y12	Z12	X13	Y13	Z13	X14	Y14	Z14	X15	Y15	Z15	X16	Y16	Z16	X17	Y17	Z17	X18	Y18	Z18	X19	Y19	Z19	X20	Y20	Z20	X21	Y21	Z21	X22	Y22	Z22	X23	Y23	Z23	X24	Y24	Z24	X25	Y25	Z25	X26	Y26	Z26	X27	Y27	Z27	X28	Y28	Z28	X29	Y29	Z29	X30	Y30	Z30	X31	Y31	Z31	X32	Y32	Z32	X33	Y33	Z33	X34	Y34	Z34	X35	Y35	Z35	X36	Y36	Z36	X37	Y37	Z37	X38	Y38	Z38	X39	Y39	Z39	X40	Y40	Z40	X41	Y41	Z41	X42	Y42	Z42	X43	Y43	Z43	X44	Y44	Z44	X45	Y45	Z45	X46	Y46	Z46	X47	Y47	Z47	X48	Y48	Z48	

42	0.41	352.8082885742188	930.6228637695315	-376.0889587402344	195.3010864257813	939.6804809570315	-314.4548950195313	186.941879272461	932.5316162109377	-205.6857452392579	342.8775329589844	927.8808593750002	-140.5381011962891	286.8567504882813	860.2294921875002	-432.7829895019532	210.6998901367188	440.1866149902345	-378.0737304687501	194.0166168212891	380.0826721191407	-373.2996215820313	248.7308502197266	369.2095031738282	-319.9149475097657	132.3517456054688	61.67637252807619	-284.0955505371094	89.02430725097658	24.93956756591798	-234.1014099121094	288.3853454589844	23.08373451232911	-234.5503387451172	279.7192077636719	30.76426124572755	-294.4318847656251	225.8101043701172	20.91390037536621	-335.9395141601563	261.1773071289063	829.7756347656252	-95.00036621093751	469.4532775878907	472.9333496093751	-138.7538452148438	461.5843811035157	423.055877685547	-134.1560821533203	520.6246337890626	408.4671936035157	-185.8224182128907	362.1488342285157	100.3714370727539	-156.4503784179688	330.4707641601563	57.9413528442383	-213.4635925292969	518.0364379882814	34.56885528564454	-166.4833374023438	501.1645507812501	52.07458877563478	-120.0242004394532	444.2592773437501	47.63208389282227	-86.21517181396486	203.8213195800782	1421.489135742188	-249.4355163574219	146.3046417236328	1196.031616210938	-259.0944213867188	328.8293762207032	1167.672607421875	-246.7534637451172	301.3526611328126	1332.326049804688	-239.7340850830079	142.6527557373047	1230.166870117188	-378.2693481445313	171.4844665527344	1351.804321289063	-359.7561340332032	253.6939392089844	1367.165771484375	-436.2372131347657	301.1364440917969	1366.665649414063	-435.0852050781251	320.0167541503907	1060.690185546875	-496.6451110839845	262.1471862792969	1041.299438476563	-447.6129150390626	278.2983398437501	1022.864318847656	-489.6041259765626	425.8437805175782	836.655700683594	-428.0990600585939	402.242645263672	840.5197753906252	-501.6224975585939	457.1255187988282	759.6572265625001	-423.2364196777345	403.9598999023439	764.4879760742189	-509.8177490234376	114.287956237793	1226.053833007813	-150.4591827392578	145.4835662841797	1343.607421875	-159.2850341796875	196.8113555908204	1348.603393554688	-62.053035736084	238.565170288086	1348.368408203125	-42.46472167968751	192.4535675048829	1038.921020507813	-25.02633857727051	181.4940490722657	1035.218017578125	-99.085807800293	167.065185546875	1008.818481445313	-55.1524124145508	303.0007629394532	810.5297851562502	-50.13735961914064	243.1988525390626	805.1602172851565	-6.741048336029055	329.8483886718751	725.9085693359376	-37.99522018432618	234.8943481445313	731.4138183593751	-5.164950847625733	
43	0.42	363.6239013671876	928.622253417969	-377.0241699218751	206.3645782470704	938.2959594726565	-314.3428955078126	198.6201171875001	930.9962158203127	-205.4360046386719	354.8149719238282	926.3939208984377	-141.1554718017578	296.5244750976563	858.6809692382815	-433.4897460937501	215.1163330078126	439.9190063476564	-378.3390197753907	197.6396026611329	380.0411376953126	-373.4376220703126	252.3795928955079	368.4490051269532	-320.4055786132813	132.5807647705078	62.19990539550783	-283.8730163574219	89.20965576171876	25.58318710327149	-233.7090606689454	288.3095397949219	23.10379409790039	-234.6766357421876	279.6368713378907	30.69048881530762	-294.5687255859376	225.7211303710938	20.77305221557618	-336.0138244628907	273.1426696777344	828.290710449219	-95.2109832763672	483.2750244140626	471.983856201172	-138.4817352294922	477.9493103027345	421.457000732422	-134.0234680175782	537.5330810546876	410.180145263672	-185.5346069335938	399.8064575195314	93.46849060058595	-158.4656066894532	371.4955139160157	49.54636383056642	-216.0955047607422	559.4766845703126	37.13274383544923	-167.6986999511719	541.2077026367189	53.41434478759767	-121.3852615356446	484.5270996093751	45.50987243652344	-87.92671203613283	216.5492095947266	1420.101806640625	-249.3670043945313	158.3879852294922	1194.873291015625	-259.2639465332032	340.7799682617188	1165.8251953125	-247.1528930664063	313.8310241699219	1330.624389648438	-239.7200012207032	155.0226745605469	1229.29833984375	-378.7822875976563	184.1962585449219	1350.783569335938	-359.9739074707032	266.7972106933594	1365.872314453125	-436.3068237304689	314.2188720703126	1365.331298828125	-434.7146606445314	338.7829895019532	1060.23583984375	-497.0940856933595	280.9980468750001	1039.229125976563	-448.600555419922	298.0662231445313	1021.259094238281	-490.521942138672	449.5828857421876	838.9251098632815	-427.4602050781251	426.4804992675782	842.0137939453127	-501.1145324707032	483.4431457519532	763.1059570312501	-422.3415527343751	430.6894836425782	766.0330810546876	-509.2232971191407	126.4297637939453	1224.673950195313	-150.9239349365235	158.1036682128907	1342.1708984375	-159.3610076904297	209.2766418457032	1346.807006835938	-62.08833694458009	250.9744110107422	1346.35546875	-42.35424041748048	201.2116699218751	1037.497802734375	-25.87405967712403	190.6576538085938	1034.163452148438	-99.96009063720706	175.1295471191407	1008.457580566406	-56.46596527099611	306.1110839843751	806.7363281250002	-49.26677322387697	245.729721069336	802.9409790039065	-6.587296009063722	330.8846435546876	721.9214477539064	-36.40904235839844	235.6551666259766	729.3339233398439	-5.032551288604737	
44	0.43	374.4135131835938	926.7159423828127	-377.9416809082032	217.4343719482422	936.813415527344	-314.1944885253907	210.3853759765626	929.3867797851565	-205.1901550292969	366.8328552246094	924.9163208007815	-141.772216796875	306.2445373535157	857.127624511719	-434.1638793945314	219.8860778808594	439.7169799804689	-378.5326538085938	201.6101837158204	380.0739135742188	-373.5028991699219	256.4098205566407	367.7201843261719	-320.8680419921876	132.8784332275391	62.87008666992189	-283.6403198242188	89.46063232421876	26.42915153503419	-233.313949584961	288.2035217285157	23.14167594909668	-234.8178863525391	279.5310058593751	30.59612083435059	-294.7183532714844	225.6154937744141	20.63523292541504	-336.0621643066407	285.1125488281251	826.7609863281252	-95.37667846679689	496.222625732422	470.4516906738282	-138.0238189697266	493.4047851562501	419.4122009277345	-133.7952117919922	553.5751953125001	411.4629821777345	-184.9499206542969	437.1093750000001	87.47791290283205	-160.9157257080078	412.4231262207032	42.36147689819337	-219.2729797363282	599.9981689453126	40.78874969482423	-169.3009185791016	580.4288330078126	55.65909576416017	-123.1226348876953	524.2013549804689	44.20460891723634	-90.07124328613283	229.296859741211	1418.673828125	-249.2366790771485	170.4688110351563	1193.683471679688	-259.3068847656251	352.7355041503907	1163.941772460938	-247.5288543701172	326.3427429199219	1328.878295898438	-239.6841735839844	167.3392028808594	1228.408569335938	-379.1735839843751	196.8720092773438	1349.716430664063	-360.0986938476563	279.8382263183594	1364.530151367188	-436.324188232422	327.2388305664063	1363.94970703125	-434.2940368652345	357.3548278808594	1059.795776367188	-497.2911987304689	299.8567199707032	1037.176391601563	-449.1738281250001	317.6900939941407	1019.687316894531	-491.059295654297	473.0596313476564	841.2963867187502	-426.7718200683595	450.3397216796876	843.6226196289065	-500.5053710937501	509.4065246582032	766.6784667968751	-421.4505310058595	457.0006103515626	767.7724609375001	-508.5673217773439	138.6773681640625	1223.2802734375	-151.2015075683594	170.8059234619141	1340.71728515625	-159.3076477050782	221.9273834228516	1345.003540039063	-62.02692794799806	263.5925292968751	1344.334594726563	-42.21247482299805	210.3029174804688	1036.097534179688	-26.70112228393555	200.0710754394532	1033.137084960938	-100.7899169921875	183.4508361816407	1008.184692382813	-57.76913452148439	309.3089599609376	803.0774536132815	-48.51399993896486	248.4730834960938	800.9212036132815	-6.449410915374758	331.9020690917969	718.0192260742189	-35.05612945556641	236.5631561279297	727.5056762695314	-4.907880306243897	
45	0.44	385.205291748047	924.9290771484377	-378.8479003906251	228.5380401611329	935.2467041015627	-313.9989318847657	222.2627105712891	927.7337646484377	-204.9432220458985	378.9614562988282	923.486511230469	-142.4070434570313	316.0334777832032	855.583435058594	-434.7973937988282	225.0449676513672	439.5914001464845	-378.6488342285157	205.964828491211	380.1925048828126	-373.4921569824219	260.8532714843751	367.0264587402344	-321.2906494140626	133.2584991455078	63.71871948242189	-283.4028930664063	89.77947998046876	27.52267646789551	-232.9307403564454	288.0835266113282	23.20412254333496	-234.9752502441407	279.4098205566407	30.49019813537598	-294.8779602050782	225.5016784667969	20.51607131958008	-336.0783691406251	297.1466979980469	825.2393188476565	-95.49084472656251	508.405731201172	468.3911132812501	-137.4109191894532	508.0218505859376	416.9658508300782	-133.5013122558594	568.8009643554689	412.321990966797	-184.129623413086	473.760711669922	82.42425537109376	-163.7367706298828	452.8723449707032	36.39923477172852	-222.8953552246094	639.2984619140626	45.49822998046876	-171.3153991699219	618.5689086914064	58.78726959228517	-125.2553329467774	563.0367431640626	43.72236633300782	-92.63732147216798	242.0612487792969	1417.227905273438	-249.0406341552735	182.5538024902344	1192.481201171875	-259.2274475097657	364.7052001953126	1162.054931640625	-247.8786163330079	338.8854980468751	1327.118530273438	-239.6232147216797	179.6136779785157	1227.52099609375	-379.4476928710938	209.5099639892579	1348.625732421875	-360.1298522949219	292.8189086914063	1363.173950195313	-436.2810668945314	340.1928710937501	1362.559326171875	-433.8166809082032	375.6999816894532	1059.391723632813	-497.2435302734376	318.6882019042969	1035.179321289063	-449.3265991210939	337.1164550781251	1018.177124023438	-491.214569091797	496.2525024414064	843.7886962890627	-426.0381774902345	473.7823791503907	845.3515625000002	-499.7974853515626	534.9588623046876	770.374938964844	-420.5595092773439	482.822967529297	769.7062988281252	-507.8373107910157	151.0291900634766	1221.894165039063	-151.296127319336	183.58349609375	1339.265991210938	-159.1278991699219	234.7503814697266	1343.217407226563	-61.87055969238283	276.4052734375001	1342.334594726563	-42.03851318359376	219.7217559814454	1034.747436523438	-27.51146507263184	209.7554779052735	1032.159423828125	-101.5806350708008	192.061752319336	1008.000671386719	-59.05663299560548	312.6447143554688	799.5939941406252	-47.86429977416993	251.4649658203126	799.1240234375002	-6.322537422180178	332.9378356933594	714.2263183593751	-33.93494415283204	237.6549682617188	725.9609375000001	-4.78871774673462	
